<svg width="834" height="652" viewBox="0 0 834 652" fill="none" xmlns="http://www.w3.org/2000/svg">
<path d="M834 0H0V652H834V0Z" fill="#1F1F1F"/>
<path d="M417 652C597.045 652 743 506.045 743 326C743 145.955 597.045 0 417 0C236.955 0 91 145.955 91 326C91 506.045 236.955 652 417 652Z" fill="url(#paint0_radial_606_1126)"/>
<g opacity="0.4">
<g opacity="0.4">
<g opacity="0.4">
<path opacity="0.4" d="M704.4 327.7L670.9 269.7L704.4 211.7H771.3L804.8 269.7L771.3 327.7H704.4Z" stroke="white" stroke-width="6" stroke-miterlimit="10"/>
</g>
</g>
</g>
<g opacity="0.4">
<g opacity="0.4">
<g opacity="0.4">
<path opacity="0.4" d="M588.4 260.8L555 202.8L588.4 144.8H655.3L688.8 202.8L655.3 260.8H588.4Z" fill="white" stroke="white" stroke-width="6" stroke-miterlimit="10"/>
</g>
<g opacity="0.4">
<path opacity="0.4" d="M588.4 127L555 69L588.4 11H655.3L688.8 69L655.3 127H588.4Z" stroke="white" stroke-width="6" stroke-miterlimit="10"/>
</g>
</g>
<g opacity="0.4">
<g opacity="0.4">
<path opacity="0.4" d="M472.4 327.7L439 269.7L472.4 211.7H539.3L572.8 269.7L539.3 327.7H472.4Z" stroke="white" stroke-width="6" stroke-miterlimit="10"/>
</g>
<g opacity="0.4">
<path opacity="0.4" d="M472.4 193.9L439 135.9L472.4 77.8999H539.3L572.8 135.9L539.3 193.9H472.4Z" fill="white" stroke="white" stroke-width="6" stroke-miterlimit="10"/>
</g>
</g>
</g>
<g opacity="0.4">
<g opacity="0.4">
<g opacity="0.4">
<path opacity="0.4" d="M356.5 394.6L323 336.6L356.5 278.6H423.4L456.8 336.6L423.4 394.6H356.5Z" fill="white" stroke="white" stroke-width="6" stroke-miterlimit="10"/>
</g>
<g opacity="0.4">
<path opacity="0.4" d="M356.5 260.8L323 202.8L356.5 144.8H423.4L456.8 202.8L423.4 260.8H356.5Z" stroke="white" stroke-width="6" stroke-miterlimit="10"/>
</g>
<g opacity="0.4">
<path opacity="0.4" d="M356.5 127L323 69L356.5 11H423.4L456.8 69L423.4 127H356.5Z" stroke="white" stroke-width="6" stroke-miterlimit="10"/>
</g>
</g>
<g opacity="0.4">
<g opacity="0.4">
<path opacity="0.4" d="M240.5 193.9L207 135.9L240.5 77.8999H307.4L340.8 135.9L307.4 193.9H240.5Z" fill="white" stroke="white" stroke-width="6" stroke-miterlimit="10"/>
</g>
</g>
</g>
<g opacity="0.4">
<g opacity="0.4">
<g opacity="0.4">
<path opacity="0.4" d="M124.5 394.6L91 336.6L124.5 278.6H191.4L224.9 336.6L191.4 394.6H124.5Z" fill="white" stroke="white" stroke-width="6" stroke-miterlimit="10"/>
</g>
<g opacity="0.4">
<path opacity="0.4" d="M124.5 260.8L91 202.8L124.5 144.8H191.4L224.9 202.8L191.4 260.8H124.5Z" stroke="white" stroke-width="6" stroke-miterlimit="10"/>
</g>
</g>
</g>
<path d="M212.375 402.07H221.651L218.559 602H215.467L212.375 402.07Z" fill="#444E59"/>
<path d="M221.651 402.07H248.446L245.354 554.594L218.559 602L221.651 402.07Z" fill="#CECECE"/>
<path d="M670.978 402.07H605.021V602H670.978V402.07Z" fill="#444E59"/>
<path d="M605.021 402.07H578.227V554.594L605.021 602V402.07Z" fill="#CECECE"/>
<path d="M714.777 388.672H172.699C168.999 388.672 166 391.671 166 395.371C166 399.07 168.999 402.069 172.699 402.069H714.777C718.477 402.069 721.476 399.07 721.476 395.371C721.476 391.671 718.477 388.672 714.777 388.672Z" fill="#AB784B"/>
<path d="M202.07 366H685.406L716.323 388.672H171.153L202.07 366Z" fill="#D2D2D2"/>
<path d="M417.183 131.367L393.193 125.524L399.071 101.498L423.062 107.341L417.183 131.367ZM394.491 124.733L416.396 130.068L421.763 108.132L399.859 102.797L394.491 124.733Z" fill="#CCCCCC"/>
<path d="M413.598 94.812L393.841 90L389 109.786L408.757 114.598L413.598 94.812Z" fill="#2874F0"/>
<path d="M492.183 191.367L468.193 185.524L474.071 161.498L498.062 167.341L492.183 191.367ZM469.491 184.733L491.396 190.068L496.763 168.132L474.859 162.797L469.491 184.733Z" fill="#CCCCCC"/>
<path d="M488.598 154.812L468.841 150L464 169.786L483.757 174.598L488.598 154.812Z" fill="#2874F0"/>
<path d="M297.183 186.367L273.193 180.524L279.071 156.498L303.062 162.341L297.183 186.367ZM274.491 179.733L296.396 185.068L301.763 163.132L279.859 157.797L274.491 179.733Z" fill="#CCCCCC"/>
<path d="M293.598 149.812L273.841 145L269 164.786L288.757 169.598L293.598 149.812Z" fill="#2874F0"/>
<path d="M572.183 122.367L548.193 116.524L554.071 92.498L578.062 98.341L572.183 122.367ZM549.491 115.733L571.396 121.068L576.763 99.132L554.859 93.797L549.491 115.733Z" fill="#CCCCCC"/>
<path d="M568.598 85.812L548.841 81L544 100.786L563.757 105.598L568.598 85.812Z" fill="#2874F0"/>
<path d="M476.67 75.628L478.298 93.713L496.383 92.085L494.755 74L476.67 75.628Z" fill="#CECECE"/>
<path d="M466.621 86.9501L488.58 84.9741L490.557 106.934L468.598 108.91L466.621 86.9501ZM487.712 86.0141L467.661 87.8191L469.466 107.87L489.517 106.065L487.712 86.0141Z" fill="#CCCCCC"/>
<path d="M581.67 154.628L583.298 172.713L601.383 171.085L599.755 153L581.67 154.628Z" fill="#CECECE"/>
<path d="M571.621 165.95L593.58 163.974L595.557 185.934L573.598 187.91L571.621 165.95ZM592.712 165.014L572.661 166.819L574.466 186.87L594.517 185.065L592.712 165.014Z" fill="#CCCCCC"/>
<path d="M368.67 152.628L370.298 170.713L388.383 169.085L386.755 151L368.67 152.628Z" fill="#CECECE"/>
<path d="M358.621 163.95L380.58 161.974L382.557 183.934L360.598 185.91L358.621 163.95ZM379.712 163.014L359.661 164.819L361.466 184.87L381.517 183.065L379.712 163.014Z" fill="#CCCCCC"/>
<path d="M322.381 226.133L304.91 231.08L309.857 248.551L327.328 243.604L322.381 226.133Z" fill="#CECECE"/>
<path d="M309.395 218.353L315.402 239.568L294.187 245.575L288.18 224.36L309.395 218.353ZM314.219 238.906L308.734 219.537L289.364 225.021L294.849 244.391L314.219 238.906Z" fill="#CCCCCC"/>
<path d="M295.67 71.628L297.298 89.713L315.383 88.085L313.755 70L295.67 71.628Z" fill="#CECECE"/>
<path d="M285.621 82.9501L307.58 80.9741L309.557 102.934L287.598 104.91L285.621 82.9501ZM306.712 82.0141L286.661 83.8191L288.466 103.87L308.517 102.065L306.712 82.0141Z" fill="#CCCCCC"/>
<path d="M355.094 353.816H252.668C250.672 353.816 249 352.198 249 350.149V336.664C249 334.669 250.618 332.997 252.668 332.997H355.094C357.09 332.997 358.762 334.615 358.762 336.664V350.149C358.762 352.198 357.143 353.816 355.094 353.816Z" fill="#50B56F"/>
<path d="M355.094 353.816H252.668C250.672 353.816 249 352.198 249 350.149V336.664C249 334.669 250.618 332.997 252.668 332.997H355.094C357.09 332.997 358.762 334.615 358.762 336.664V350.149C358.762 352.198 357.143 353.816 355.094 353.816Z" stroke="#1F3969" stroke-width="1.93852" stroke-miterlimit="10" stroke-linecap="round" stroke-linejoin="round"/>
<path opacity="0.28" d="M357.565 333.05H341.384V341.141C341.384 346.211 345.483 350.364 350.607 350.364H361.233C361.233 350.31 361.233 350.256 361.233 350.202V336.718C361.233 334.669 359.614 333.05 357.565 333.05Z" fill="#1F3969" stroke="#1F3969" stroke-width="1.93852" stroke-miterlimit="10" stroke-linecap="round" stroke-linejoin="round"/>
<path d="M383.95 358.023H265.289C265.99 359.749 266.368 361.907 266.368 364.172C266.368 366.437 265.99 368.541 265.289 370.321H383.896C383.195 368.595 382.818 366.437 382.818 364.172C382.871 361.853 383.249 359.749 383.95 358.023Z" fill="#CECECE"/>
<path d="M387.186 354.733H262.106V357.969H387.186V354.733Z" fill="#5F5AFF"/>
<path d="M387.186 354.733H262.106V357.969H387.186V354.733Z" stroke="#1F3969" stroke-width="1.93852" stroke-miterlimit="10" stroke-linecap="round" stroke-linejoin="round"/>
<path d="M387.186 370.267H262.106V373.503H387.186V370.267Z" fill="#F6F9FD"/>
<path d="M387.186 370.267H262.106V373.503H387.186V370.267Z" fill="#5F5AFF"/>
<path d="M387.186 370.267H262.106V373.503H387.186V370.267Z" stroke="#1F3969" stroke-width="1.93852" stroke-miterlimit="10" stroke-linecap="round" stroke-linejoin="round"/>
<path d="M451.793 362.015L450.175 343.838H423.53L421.912 362.015C421.534 366.222 418.999 370.267 415.008 373.503V373.557H458.697V373.503C454.705 370.267 452.17 366.222 451.793 362.015Z" fill="#BFCFE2"/>
<path opacity="0.28" d="M423.53 343.838L422.56 354.733H451.146L450.175 343.838H423.53Z" fill="#1F3969" stroke="#1F3969" stroke-width="1.93852" stroke-miterlimit="10" stroke-linecap="round" stroke-linejoin="round"/>
<path d="M451.793 362.015L450.175 343.838H423.53L421.912 362.015C421.534 366.222 418.999 370.267 415.008 373.503V373.557H458.697V373.503C454.705 370.267 452.17 366.222 451.793 362.015Z" stroke="#1F3969" stroke-width="1.93852" stroke-miterlimit="10" stroke-linecap="round" stroke-linejoin="round"/>
<path d="M522.072 346.535H351.632C348.072 346.535 345.159 343.622 345.159 340.062V228.952C345.159 225.392 348.072 222.48 351.632 222.48H522.072C525.632 222.48 528.545 225.392 528.545 228.952V340.062C528.545 343.676 525.632 346.535 522.072 346.535Z" fill="white"/>
<path d="M522.072 346.535H351.632C348.072 346.535 345.159 343.622 345.159 340.062V228.952C345.159 225.392 348.072 222.48 351.632 222.48H522.072C525.632 222.48 528.545 225.392 528.545 228.952V340.062C528.545 343.676 525.632 346.535 522.072 346.535Z" fill="#BFCFE2"/>
<path d="M522.072 346.535H351.632C348.072 346.535 345.159 343.622 345.159 340.062V228.952C345.159 225.392 348.072 222.48 351.632 222.48H522.072C525.632 222.48 528.545 225.392 528.545 228.952V340.062C528.545 343.676 525.632 346.535 522.072 346.535Z" stroke="#1F3969" stroke-width="1.93852" stroke-miterlimit="10" stroke-linecap="round" stroke-linejoin="round"/>
<path d="M519.405 325.838V231.664L354.358 231.664V325.838H519.405Z" fill="#F6F9FD"/>
<path opacity="0.28" d="M360.262 222.48V297.236C360.262 299.61 362.203 301.551 364.577 301.551H466.571C468.945 301.551 470.886 299.61 470.886 297.236V222.48H360.262Z" fill="#1F3969" stroke="#1F3969" stroke-width="1.93852" stroke-miterlimit="10" stroke-linecap="round" stroke-linejoin="round"/>
<path d="M519.405 325.838V231.664L354.358 231.664V325.838H519.405Z" stroke="#1F3969" stroke-width="1.93852" stroke-miterlimit="10" stroke-linecap="round" stroke-linejoin="round"/>
<path d="M429.625 336.125H444.134" stroke="#1F3969" stroke-width="1.93852" stroke-miterlimit="10" stroke-linecap="round" stroke-linejoin="round"/>
<path d="M471.426 295.618H369.431C367.058 295.618 365.116 293.676 365.116 291.303V211.369C365.116 208.996 367.058 207.054 369.431 207.054H471.426C473.799 207.054 475.741 208.996 475.741 211.369V291.357C475.741 293.73 473.799 295.618 471.426 295.618Z" fill="#2D425E"/>
<path d="M475.741 217.518H365.116V211.315C365.116 208.942 367.058 207 369.431 207H471.426C473.799 207 475.741 208.942 475.741 211.315V217.518Z" stroke="#1F3969" stroke-width="1.93852" stroke-miterlimit="10" stroke-linecap="round" stroke-linejoin="round"/>
<path d="M475.741 219.567H365.116V211.315C365.116 208.942 367.058 207 369.431 207H471.426C473.799 207 475.741 208.942 475.741 211.315V219.567Z" fill="#D0DDF0"/>
<path d="M475.741 219.567H365.116V211.315C365.116 208.942 367.058 207 369.431 207H471.426C473.799 207 475.741 208.942 475.741 211.315V219.567Z" stroke="#1F3969" stroke-width="1.93852" stroke-miterlimit="10" stroke-linecap="round" stroke-linejoin="round"/>
<path d="M475.741 219.567H365.116V211.315C365.116 208.942 367.058 207 369.431 207H471.426C473.799 207 475.741 208.942 475.741 211.315V219.567Z" stroke="#1F3969" stroke-width="1.93852" stroke-miterlimit="10" stroke-linecap="round" stroke-linejoin="round"/>
<path d="M471.426 295.618H369.431C367.058 295.618 365.116 293.676 365.116 291.303V211.369C365.116 208.996 367.058 207.054 369.431 207.054H471.426C473.799 207.054 475.741 208.996 475.741 211.369V291.357C475.741 293.73 473.799 295.618 471.426 295.618Z" stroke="#1F3969" stroke-width="1.93852" stroke-miterlimit="10" stroke-linecap="round" stroke-linejoin="round"/>
<path opacity="0.28" d="M524.661 314.712H462.094C459.721 314.712 457.779 312.77 457.779 310.397V244.109C457.779 241.736 459.721 239.794 462.094 239.794H524.661C527.034 239.794 528.976 241.736 528.976 244.109V310.397C528.976 312.824 527.034 314.712 524.661 314.712Z" fill="#1F3969" stroke="#1F3969" stroke-width="1.93852" stroke-miterlimit="10" stroke-linecap="round" stroke-linejoin="round"/>
<path d="M528.975 310.937H466.409C464.035 310.937 462.094 308.995 462.094 306.622V240.333C462.094 237.96 464.035 236.018 466.409 236.018H528.975C531.349 236.018 533.29 237.96 533.29 240.333V306.622C533.29 309.049 531.349 310.937 528.975 310.937Z" fill="#2AA1FF"/>
<path d="M528.975 310.937H466.409C464.035 310.937 462.094 308.995 462.094 306.622V240.333C462.094 237.96 464.035 236.018 466.409 236.018H528.975C531.349 236.018 533.29 237.96 533.29 240.333V306.622C533.29 309.049 531.349 310.937 528.975 310.937Z" stroke="#1F3969" stroke-width="1.93852" stroke-miterlimit="10" stroke-linecap="round" stroke-linejoin="round"/>
<path opacity="0.34" d="M519.644 256.568H475.632C474.068 256.568 472.827 255.328 472.827 253.763V249.556C472.827 247.992 474.068 246.752 475.632 246.752H519.644C521.209 246.752 522.449 247.992 522.449 249.556V253.763C522.449 255.328 521.209 256.568 519.644 256.568Z" stroke="white" stroke-width="0.969262" stroke-miterlimit="10" stroke-linecap="round" stroke-linejoin="round"/>
<g opacity="0.34">
<path opacity="0.34" d="M500.336 272.372H475.741C474.177 272.372 472.937 271.131 472.937 269.567V265.36C472.937 263.796 474.177 262.555 475.741 262.555H500.336C501.901 262.555 503.141 263.796 503.141 265.36V269.567C503.087 271.131 501.847 272.372 500.336 272.372Z" stroke="white" stroke-width="0.969262" stroke-miterlimit="10" stroke-linecap="round" stroke-linejoin="round"/>
<path opacity="0.34" d="M519.698 272.372H510.151C508.587 272.372 507.347 271.131 507.347 269.567V265.36C507.347 263.796 508.587 262.555 510.151 262.555H519.698C521.262 262.555 522.503 263.796 522.503 265.36V269.567C522.503 271.131 521.262 272.372 519.698 272.372Z" stroke="white" stroke-width="0.969262" stroke-miterlimit="10" stroke-linecap="round" stroke-linejoin="round"/>
</g>
<path d="M472.881 288.768H522.449" stroke="white" stroke-width="0.969262" stroke-miterlimit="10" stroke-linecap="round" stroke-linejoin="round"/>
<path d="M472.881 294.594H522.449" stroke="white" stroke-width="0.969262" stroke-miterlimit="10" stroke-linecap="round" stroke-linejoin="round"/>
<path d="M472.881 300.419H503.086" stroke="white" stroke-width="0.969262" stroke-miterlimit="10" stroke-linecap="round" stroke-linejoin="round"/>
<path d="M375.957 215.468C377.149 215.468 378.115 214.502 378.115 213.311C378.115 212.119 377.149 211.153 375.957 211.153C374.766 211.153 373.8 212.119 373.8 213.311C373.8 214.502 374.766 215.468 375.957 215.468Z" fill="#1F3969"/>
<path d="M383.454 215.468C384.646 215.468 385.612 214.502 385.612 213.311C385.612 212.119 384.646 211.153 383.454 211.153C382.263 211.153 381.297 212.119 381.297 213.311C381.297 214.502 382.263 215.468 383.454 215.468Z" fill="#1F3969"/>
<path d="M390.951 215.468C392.143 215.468 393.109 214.502 393.109 213.311C393.109 212.119 392.143 211.153 390.951 211.153C389.76 211.153 388.794 212.119 388.794 213.311C388.794 214.502 389.76 215.468 390.951 215.468Z" fill="#1F3969"/>
<path d="M428.653 229.546H435.665" stroke="white" stroke-width="2.90779" stroke-miterlimit="10" stroke-linecap="round" stroke-linejoin="round"/>
<path d="M393.108 229.546H423.475" stroke="#7BFFA0" stroke-width="2.90779" stroke-miterlimit="10" stroke-linecap="round" stroke-linejoin="round"/>
<path d="M378.114 229.546H388.794" stroke="#9169FF" stroke-width="2.90779" stroke-miterlimit="10" stroke-linecap="round" stroke-linejoin="round"/>
<path d="M392.029 282.673H415.222" stroke="#9169FF" stroke-width="2.90779" stroke-miterlimit="10" stroke-linecap="round" stroke-linejoin="round"/>
<path d="M378.114 282.673H385.611" stroke="#7BFFA0" stroke-width="2.90779" stroke-miterlimit="10" stroke-linecap="round" stroke-linejoin="round"/>
<path d="M423.476 236.18H427.844" stroke="white" stroke-width="2.90779" stroke-miterlimit="10" stroke-linecap="round" stroke-linejoin="round"/>
<path d="M403.627 236.18H418.298" stroke="#9169FF" stroke-width="2.90779" stroke-miterlimit="10" stroke-linecap="round" stroke-linejoin="round"/>
<path d="M383.454 236.18H398.395" stroke="#FFC47D" stroke-width="2.90779" stroke-miterlimit="10" stroke-linecap="round" stroke-linejoin="round"/>
<path d="M406.594 242.814H419.485" stroke="white" stroke-width="2.90779" stroke-miterlimit="10" stroke-linecap="round" stroke-linejoin="round"/>
<path d="M390.412 242.814H402.548" stroke="#FF5757" stroke-width="2.90779" stroke-miterlimit="10" stroke-linecap="round" stroke-linejoin="round"/>
<path d="M408.319 249.448H410.962" stroke="white" stroke-width="2.90779" stroke-miterlimit="10" stroke-linecap="round" stroke-linejoin="round"/>
<path d="M397.641 249.448H403.628" stroke="#9169FF" stroke-width="2.90779" stroke-miterlimit="10" stroke-linecap="round" stroke-linejoin="round"/>
<path d="M383.454 249.448H393.109" stroke="#7BFFA0" stroke-width="2.90779" stroke-miterlimit="10" stroke-linecap="round" stroke-linejoin="round"/>
<path d="M404.166 256.137H421.372" stroke="#FFC47D" stroke-width="2.90779" stroke-miterlimit="10" stroke-linecap="round" stroke-linejoin="round"/>
<path d="M383.454 256.137H398.88" stroke="#FF5757" stroke-width="2.90779" stroke-miterlimit="10" stroke-linecap="round" stroke-linejoin="round"/>
<path d="M424.069 262.771H433.4" stroke="#9169FF" stroke-width="2.90779" stroke-miterlimit="10" stroke-linecap="round" stroke-linejoin="round"/>
<path d="M404.166 262.771H419.107" stroke="#FF5757" stroke-width="2.90779" stroke-miterlimit="10" stroke-linecap="round" stroke-linejoin="round"/>
<path d="M390.412 262.771H398.88" stroke="#7BFFA0" stroke-width="2.90779" stroke-miterlimit="10" stroke-linecap="round" stroke-linejoin="round"/>
<path d="M410.962 269.405H419.106" stroke="white" stroke-width="2.90779" stroke-miterlimit="10" stroke-linecap="round" stroke-linejoin="round"/>
<path d="M390.412 269.405H405.353" stroke="#9169FF" stroke-width="2.90779" stroke-miterlimit="10" stroke-linecap="round" stroke-linejoin="round"/>
<path d="M432.159 276.039H441.49" stroke="white" stroke-width="2.90779" stroke-miterlimit="10" stroke-linecap="round" stroke-linejoin="round"/>
<path d="M403.627 276.039H427.09" stroke="#FFC47D" stroke-width="2.90779" stroke-miterlimit="10" stroke-linecap="round" stroke-linejoin="round"/>
<path d="M383.454 276.039H398.395" stroke="white" stroke-width="2.90779" stroke-miterlimit="10" stroke-linecap="round" stroke-linejoin="round"/>
<path d="M266.638 361.745H382.872" stroke="#1F3969" stroke-width="0.969262" stroke-miterlimit="10" stroke-linecap="round" stroke-linejoin="round"/>
<path d="M266.638 366.06H382.872" stroke="#1F3969" stroke-width="0.969262" stroke-miterlimit="10" stroke-linecap="round" stroke-linejoin="round"/>
<path d="M383.95 358.023H265.289C265.99 359.749 266.368 361.907 266.368 364.172C266.368 366.437 265.99 368.541 265.289 370.321H383.896C383.195 368.595 382.818 366.437 382.818 364.172C382.871 361.853 383.249 359.749 383.95 358.023Z" stroke="#1F3969" stroke-width="1.93852" stroke-miterlimit="10" stroke-linecap="round" stroke-linejoin="round"/>
<path d="M477.635 372.551H396.919V374.198H477.635V372.551Z" fill="#1F3969"/>
<path d="M477.635 372.551H396.919V374.198H477.635V372.551Z" stroke="#1F3969" stroke-width="1.93852" stroke-miterlimit="10" stroke-linecap="round" stroke-linejoin="round"/>
<path d="M313.331 309.877H272.94C272.439 309.877 271.988 310.028 271.637 310.378L261.865 318.898C260.963 319.7 260.963 321.103 261.865 321.854L271.637 330.524C271.988 330.825 272.439 331.125 272.94 331.125H313.331C315.637 331.125 317.541 329.021 317.541 326.715V313.936C317.491 311.731 315.637 309.877 313.331 309.877ZM271.838 322.857C270.484 322.857 269.332 321.754 269.332 320.351C269.332 318.948 270.434 317.845 271.838 317.845C273.241 317.845 274.343 318.948 274.343 320.351C274.343 321.754 273.241 322.857 271.838 322.857Z" fill="white"/>
<path d="M293.988 309.877H282.211V331.175H293.988V309.877Z" fill="#F09F54"/>
<path d="M305.764 309.877H293.987V331.175H305.764V309.877Z" fill="#ED8B3B"/>
<path d="M312.278 331.175H305.764V309.877H312.479C315.235 309.877 317.54 312.132 317.54 314.939V325.964C317.49 328.82 315.135 331.175 312.278 331.175Z" fill="#FF6C37"/>
<path opacity="0.4" d="M314.434 310.93C314.233 310.88 314.033 310.88 313.832 310.88H273.441C272.94 310.88 272.489 311.03 272.138 311.381L262.366 319.9C261.464 320.702 261.464 322.105 262.366 322.857L268.48 328.219L275.095 329.872C275.395 329.973 275.746 329.973 276.097 329.973C276.748 329.973 277.35 329.822 277.951 329.522L313.933 311.18C314.083 311.13 314.283 311.03 314.434 310.93ZM272.339 323.859C270.985 323.859 269.833 322.756 269.833 321.353C269.833 319.95 270.935 318.848 272.339 318.848C273.742 318.848 274.844 319.95 274.844 321.353C274.844 322.756 273.742 323.859 272.339 323.859Z" fill="#848484"/>
<path d="M313.331 309.877H272.94C272.439 309.877 271.988 310.028 271.637 310.378L261.865 318.898C260.963 319.7 260.963 321.103 261.865 321.854L271.637 330.524C271.988 330.825 272.439 331.125 272.94 331.125H313.331C315.637 331.125 317.541 329.021 317.541 326.715V313.936C317.491 311.731 315.637 309.877 313.331 309.877ZM271.838 322.857C270.484 322.857 269.332 321.754 269.332 320.351C269.332 318.948 270.434 317.845 271.838 317.845C273.241 317.845 274.343 318.948 274.343 320.351C274.343 321.754 273.241 322.857 271.838 322.857Z" stroke="#1F3969" stroke-width="1.93852" stroke-miterlimit="10" stroke-linecap="round" stroke-linejoin="round"/>
<path d="M293.988 309.877H282.211V331.175H293.988V309.877Z" stroke="#1F3969" stroke-width="1.93852" stroke-miterlimit="10" stroke-linecap="round" stroke-linejoin="round"/>
<path d="M305.764 309.877H293.987V331.175H305.764V309.877Z" stroke="#1F3969" stroke-width="1.93852" stroke-miterlimit="10" stroke-linecap="round" stroke-linejoin="round"/>
<path d="M312.278 331.175H305.764V309.877H312.479C315.235 309.877 317.54 312.132 317.54 314.939V325.964C317.49 328.82 315.135 331.175 312.278 331.175Z" stroke="#1F3969" stroke-width="1.93852" stroke-miterlimit="10" stroke-linecap="round" stroke-linejoin="round"/>
<path d="M302.907 289.631L266.926 307.973C266.475 308.173 266.174 308.574 265.973 309.025L261.163 321.053C260.712 322.155 261.363 323.408 262.516 323.709L275.094 326.916C275.545 327.016 276.046 326.966 276.497 326.765L312.479 308.424C314.533 307.372 315.335 304.866 314.283 302.861L308.47 291.486C307.417 289.381 304.911 288.579 302.907 289.631Z" fill="white"/>
<path d="M296.13 293.064L285.64 298.417L295.206 317.166L305.696 311.813L296.13 293.064Z" fill="#8D91DB"/>
<path d="M302.907 289.631L266.926 307.973C266.475 308.173 266.174 308.574 265.973 309.025L261.163 321.053C260.712 322.155 261.363 323.408 262.516 323.709L275.094 326.916C275.545 327.016 276.046 326.966 276.497 326.765L312.479 308.424C314.533 307.372 315.335 304.866 314.283 302.861L308.47 291.486C307.417 289.381 304.911 288.579 302.907 289.631Z" stroke="#1F3969" stroke-width="1.93852" stroke-miterlimit="10" stroke-linecap="round" stroke-linejoin="round"/>
<path d="M270.735 320.752C272.34 320.752 273.641 319.45 273.641 317.845C273.641 316.24 272.34 314.939 270.735 314.939C269.129 314.939 267.828 316.24 267.828 317.845C267.828 319.45 269.129 320.752 270.735 320.752Z" fill="#444E59"/>
<path d="M285.618 298.444L275.127 303.796L284.693 322.546L295.184 317.193L285.618 298.444Z" fill="#BECCD5" stroke="#1F3969" stroke-width="1.93852" stroke-miterlimit="10" stroke-linecap="round" stroke-linejoin="round"/>
<path d="M285.618 298.444L275.127 303.796L284.693 322.546L295.184 317.193L285.618 298.444Z" stroke="#1F3969" stroke-width="1.93852" stroke-miterlimit="10" stroke-linecap="round" stroke-linejoin="round"/>
<path d="M296.13 293.064L285.64 298.417L295.206 317.166L305.696 311.813L296.13 293.064Z" stroke="#1F3969" stroke-width="1.93852" stroke-miterlimit="10" stroke-linecap="round" stroke-linejoin="round"/>
<path d="M311.677 308.775L305.663 311.832L296.092 293.089L302.105 290.032C304.561 288.78 307.568 289.732 308.871 292.237L313.882 302.06C315.135 304.515 314.133 307.522 311.677 308.775Z" fill="#6567C3"/>
<path d="M311.677 308.775L305.663 311.832L296.092 293.089L302.105 290.032C304.561 288.78 307.568 289.732 308.871 292.237L313.882 302.06C315.135 304.515 314.133 307.522 311.677 308.775Z" stroke="#1F3969" stroke-width="1.93852" stroke-miterlimit="10" stroke-linecap="round" stroke-linejoin="round"/>
<path d="M360.397 379.292H332.711C330.449 379.292 328.598 377.441 328.598 375.178V319.684C328.598 317.422 330.449 315.57 332.711 315.57H360.397C362.659 315.57 364.51 317.422 364.51 319.684V375.178C364.51 377.482 362.659 379.292 360.397 379.292Z" fill="white"/>
<path d="M365.086 334.699H328.598V319.602C328.598 317.38 330.408 315.57 332.629 315.57H360.808C363.153 315.57 365.045 317.504 365.045 319.808V334.699H365.086Z" fill="#6567C3"/>
<path d="M360.397 379.292H332.711C330.449 379.292 328.598 377.441 328.598 375.178V319.684C328.598 317.422 330.449 315.57 332.711 315.57H360.397C362.659 315.57 364.51 317.422 364.51 319.684V375.178C364.51 377.482 362.659 379.292 360.397 379.292Z" stroke="#1F3969" stroke-width="1.93852" stroke-miterlimit="10" stroke-linecap="round" stroke-linejoin="round"/>
<path d="M360.438 379.292H332.835C330.49 379.292 328.557 377.358 328.557 375.014V367.115H364.511V375.219C364.511 377.482 362.659 379.292 360.438 379.292Z" fill="#BBBFC2"/>
<path d="M360.52 379.292H332.835C330.49 379.292 328.557 377.358 328.557 375.014V367.115H364.511V375.302C364.511 377.523 362.7 379.292 360.52 379.292Z" stroke="#1F3969" stroke-width="1.93852" stroke-miterlimit="10" stroke-linecap="round" stroke-linejoin="round"/>
<path d="M346.822 375.014C347.957 375.014 348.878 374.093 348.878 372.957C348.878 371.821 347.957 370.9 346.822 370.9C345.686 370.9 344.765 371.821 344.765 372.957C344.765 374.093 345.686 375.014 346.822 375.014Z" fill="#444E59"/>
<path opacity="0.3" d="M336.702 341.075H356.983" stroke="#1F3969" stroke-width="1.93852" stroke-miterlimit="10" stroke-linecap="round" stroke-linejoin="round"/>
<path opacity="0.3" d="M340.733 347.452H353.486" stroke="#1F3969" stroke-width="1.93852" stroke-miterlimit="10" stroke-linecap="round" stroke-linejoin="round"/>
<path opacity="0.3" d="M336.702 353.252H356.983" stroke="#1F3969" stroke-width="1.93852" stroke-miterlimit="10" stroke-linecap="round" stroke-linejoin="round"/>
<path opacity="0.62" d="M346.821 331.203C349.366 331.203 351.429 329.14 351.429 326.595C351.429 324.051 349.366 321.988 346.821 321.988C344.277 321.988 342.214 324.051 342.214 326.595C342.214 329.14 344.277 331.203 346.821 331.203Z" fill="white"/>
<path d="M353.487 359.628C353.487 360.904 352.458 361.932 351.183 361.932H342.503C341.228 361.932 340.199 360.904 340.199 359.628C340.199 358.353 341.228 357.325 342.503 357.325H351.183C352.458 357.283 353.487 358.312 353.487 359.628Z" fill="#ED8B3B"/>
<path d="M613.153 371.156H498.864V302.479C498.864 300.45 500.515 298.799 502.543 298.799H609.522C611.503 298.799 613.106 300.403 613.106 302.384V371.156H613.153Z" fill="#BBBFC2"/>
<path d="M613.436 371.297H499.194V302.431C499.194 300.356 500.892 298.658 502.968 298.658H609.663C611.738 298.658 613.436 300.356 613.436 302.431V371.297Z" stroke="#1F3969" stroke-width="1.93852" stroke-miterlimit="10" stroke-linecap="round" stroke-linejoin="round"/>
<path opacity="0.71" d="M607.176 365.225V304.755H505.528V365.225H607.176Z" fill="#5D5D5D"/>
<path opacity="0.32" d="M530.373 353.704H521.6C521.081 353.704 520.656 353.279 520.656 352.76V322.714C520.656 322.195 521.081 321.771 521.6 321.771H530.373C530.892 321.771 531.316 322.195 531.316 322.714V352.807C531.316 353.279 530.892 353.704 530.373 353.704Z" fill="#848484"/>
<path opacity="0.32" d="M593.72 359.788H543.061C542.023 359.788 541.174 358.939 541.174 357.902V319.176C541.174 318.139 542.023 317.29 543.061 317.29H593.72C594.757 317.29 595.606 318.139 595.606 319.176V357.902C595.606 358.939 594.804 359.788 593.72 359.788Z" fill="#848484"/>
<path d="M607.086 364.939V304.988H505.532V364.939H607.086Z" stroke="#1F3969" stroke-width="1.93852" stroke-miterlimit="10" stroke-linecap="round" stroke-linejoin="round"/>
<path d="M625.889 371.297H486.694V375.731C486.694 377.807 488.392 379.505 490.468 379.505H622.115C624.19 379.505 625.889 377.807 625.889 375.731V371.297Z" fill="white"/>
<path opacity="0.8" d="M492.024 379.788H620.605C623.199 379.788 625.322 377.807 625.794 375.118H486.788C487.26 377.807 489.43 379.788 492.024 379.788Z" fill="#BBBFC2"/>
<path d="M625.889 371.297H486.694V375.731C486.694 377.807 488.392 379.505 490.468 379.505H622.115C624.19 379.505 625.889 377.807 625.889 375.731V371.297Z" stroke="#1F3969" stroke-width="1.93852" stroke-miterlimit="10" stroke-linecap="round" stroke-linejoin="round"/>
<path d="M528.768 319.365H518.155V329.978H528.768V319.365Z" fill="#F09F54"/>
<path d="M528.958 319.459H518.345V330.072H528.958V319.459Z" stroke="#1F3969" stroke-width="1.93852" stroke-miterlimit="10" stroke-linecap="round" stroke-linejoin="round"/>
<path d="M528.958 319.459H518.345V330.072H528.958V319.459Z" stroke="#1F3969" stroke-width="1.93852" stroke-miterlimit="10" stroke-linecap="round" stroke-linejoin="round"/>
<path d="M528.768 329.978H518.155V340.591H528.768V329.978Z" fill="#8D91DB"/>
<path d="M528.958 330.119H518.345V340.732H528.958V330.119Z" stroke="#1F3969" stroke-width="1.93852" stroke-miterlimit="10" stroke-linecap="round" stroke-linejoin="round"/>
<path d="M528.768 340.591H518.155V351.204H528.768V340.591Z" fill="#6567C3"/>
<path d="M528.958 340.732H518.345V351.345H528.958V340.732Z" stroke="#1F3969" stroke-width="1.93852" stroke-miterlimit="10" stroke-linecap="round" stroke-linejoin="round"/>
<path d="M590.654 356.534H539.948C538.911 356.534 538.062 355.685 538.062 354.647V315.922C538.062 314.884 538.911 314.035 539.948 314.035H590.654C591.692 314.035 592.541 314.884 592.541 315.922V354.647C592.541 355.732 591.692 356.534 590.654 356.534Z" fill="white"/>
<path d="M590.654 356.534H539.948C538.911 356.534 538.062 355.685 538.062 354.647V315.922C538.062 314.884 538.911 314.035 539.948 314.035H590.654C591.692 314.035 592.541 314.884 592.541 315.922V354.647C592.541 355.732 591.692 356.534 590.654 356.534Z" stroke="#1F3969" stroke-width="1.93852" stroke-miterlimit="10" stroke-linecap="round" stroke-linejoin="round"/>
<g opacity="0.3">
<g opacity="0.3">
<path opacity="0.3" d="M576.597 345.355V346.062H575.89" stroke="#1F3969" stroke-width="0.969262" stroke-linejoin="round"/>
<path opacity="0.3" d="M574.993 346.062H555.229" stroke="#1F3969" stroke-width="0.969262" stroke-linejoin="round" stroke-dasharray="1.39 1.39"/>
<path opacity="0.3" d="M554.758 346.062H554.051V345.355" stroke="#1F3969" stroke-width="0.969262" stroke-linejoin="round"/>
<path opacity="0.3" d="M554.051 344.364V325.969" stroke="#1F3969" stroke-width="0.969262" stroke-linejoin="round" stroke-dasharray="1.46 1.46"/>
<path opacity="0.3" d="M554.052 325.497V324.79H554.759" stroke="#1F3969" stroke-width="0.969262" stroke-linejoin="round"/>
<path opacity="0.3" d="M555.654 324.789H575.418" stroke="#1F3969" stroke-width="0.969262" stroke-linejoin="round" stroke-dasharray="1.39 1.39"/>
<path opacity="0.3" d="M575.89 324.789H576.597V325.497" stroke="#1F3969" stroke-width="0.969262" stroke-linejoin="round"/>
<path opacity="0.3" d="M576.598 326.44V344.883" stroke="#1F3969" stroke-width="0.969262" stroke-linejoin="round" stroke-dasharray="1.46 1.46"/>
</g>
</g>
<path d="M555.844 323.138H552.495V326.487H555.844V323.138Z" fill="white"/>
<path d="M555.655 322.997H552.354V326.299H555.655V322.997Z" stroke="#1F3969" stroke-width="0.484631" stroke-miterlimit="10" stroke-linejoin="round"/>
<path d="M555.844 344.364H552.495V347.713H555.844V344.364Z" fill="white"/>
<path d="M555.655 344.27H552.354V347.572H555.655V344.27Z" stroke="#1F3969" stroke-width="0.484631" stroke-miterlimit="10" stroke-linejoin="round"/>
<path d="M578.296 323.138H574.947V326.487H578.296V323.138Z" fill="white"/>
<path d="M578.249 322.997H574.947V326.299H578.249V322.997Z" stroke="#1F3969" stroke-width="0.484631" stroke-miterlimit="10" stroke-linejoin="round"/>
<path d="M578.296 344.364H574.947V347.713H578.296V344.364Z" fill="white"/>
<path d="M578.249 344.27H574.947V347.572H578.249V344.27Z" stroke="#1F3969" stroke-width="0.484631" stroke-miterlimit="10" stroke-linejoin="round"/>
<path d="M523.674 335.591L527.023 342.761L530.277 344.459L532.541 342.195L530.891 338.893L523.674 335.591Z" fill="white"/>
<path d="M523.674 335.591L527.023 342.761L530.277 344.459L532.541 342.195L530.891 338.893L523.674 335.591Z" stroke="#1F3969" stroke-width="0.484631" stroke-miterlimit="10" stroke-linejoin="round"/>
<path d="M527.919 340.544C528.414 340.544 528.815 340.142 528.815 339.647C528.815 339.152 528.414 338.751 527.919 338.751C527.424 338.751 527.022 339.152 527.022 339.647C527.022 340.142 527.424 340.544 527.919 340.544Z" fill="#444E59"/>
<path d="M523.674 335.591L527.4 339.317" stroke="#1F3969" stroke-width="0.484631" stroke-miterlimit="10" stroke-linecap="round" stroke-linejoin="round"/>
<path d="M532.555 342.157L530.287 344.425L531.921 346.059L534.189 343.791L532.555 342.157Z" fill="white"/>
<path d="M532.555 342.157L530.287 344.425L531.921 346.059L534.189 343.791L532.555 342.157Z" stroke="#1F3969" stroke-width="0.484631" stroke-miterlimit="10" stroke-linejoin="round"/>
<path d="M639.51 314.072L634.26 314.689L638.826 353.581L644.075 352.964L639.51 314.072Z" fill="#FFA364"/>
<path d="M639.516 314.114L634.267 314.73L634.732 318.694L639.982 318.078L639.516 314.114Z" fill="#2AA1FF"/>
<path d="M639.516 314.114L634.267 314.73L634.732 318.694L639.982 318.078L639.516 314.114Z" stroke="#1F3969" stroke-width="1.93852" stroke-miterlimit="10" stroke-linecap="round" stroke-linejoin="round"/>
<path d="M639.51 314.072L634.26 314.689L638.826 353.581L644.075 352.964L639.51 314.072Z" stroke="#1F3969" stroke-width="1.93852" stroke-miterlimit="10" stroke-linecap="round" stroke-linejoin="round"/>
<path d="M653.906 322.039L648.651 321.467L644.418 360.395L649.673 360.966L653.906 322.039Z" fill="#FF5252"/>
<path d="M653.906 322.039L648.651 321.467L644.418 360.395L649.673 360.966L653.906 322.039Z" stroke="#1F3969" stroke-width="1.93852" stroke-miterlimit="10" stroke-linecap="round" stroke-linejoin="round"/>
<path d="M653.944 322.048L648.689 321.477L648.258 325.444L653.513 326.016L653.944 322.048Z" fill="#2AA1FF"/>
<path d="M653.944 322.048L648.689 321.477L648.258 325.444L653.513 326.016L653.944 322.048Z" stroke="#1F3969" stroke-width="1.93852" stroke-miterlimit="10" stroke-linecap="round" stroke-linejoin="round"/>
<path d="M657.175 373.688H635.977L632.525 341.218H660.626L657.175 373.688Z" fill="#6567C3"/>
<path d="M632.525 341.218L632.579 341.812H653.992L650.594 373.688H657.175L660.626 341.218H632.525Z" fill="#6567C3"/>
<path d="M657.175 373.688H635.977L632.525 341.218H660.626L657.175 373.688Z" stroke="#1F3969" stroke-width="1.93852" stroke-miterlimit="10" stroke-linecap="round" stroke-linejoin="round"/>
<path d="M181.539 87.024C180.087 86.905 178.633 87.23 177.37 87.955C176.13 88.805 175.348 90.293 174.55 91.677C171.5 97.034 167.37 101.699 162.422 105.377C158.818 108.017 154.237 111.309 154.853 116.176C155.178 117.784 155.772 119.325 156.61 120.735C159.934 127.446 169.006 132.632 168.114 140.29C171.417 134.761 166.999 132.026 170.302 126.497C171.875 123.864 174.607 120.891 176.982 122.545C177.777 123.099 178.3 124.092 179.128 124.578C181.103 125.737 183.205 123.52 184.954 121.951C190.984 116.537 199.56 117.955 207.064 119.642C210.606 120.438 214.498 121.483 216.592 124.869C219.345 129.321 213.976 134.129 212.619 139.162C212.508 139.591 212.503 140.04 212.604 140.472C212.705 140.903 212.908 141.303 213.198 141.639C213.487 141.974 213.853 142.235 214.265 142.398C214.677 142.561 215.122 142.622 215.562 142.575C217.814 142.353 220.481 142.171 220.615 141.183C223.448 141.284 226.919 140.963 228.133 138.013C228.504 136.846 228.7 135.63 228.714 134.406C229.16 129.451 231.263 124.93 232.656 120.214C234.049 115.498 234.655 109.971 232.304 105.79C231.465 104.399 230.427 103.137 229.224 102.046C215.882 89.134 198.339 87.005 181.539 87.024Z" fill="black"/>
<path d="M171.015 149.963C171.015 149.963 173.917 174.143 163.278 176.078C152.638 178.012 172.95 210.898 172.95 210.898L221.312 216.702L209.705 178.012C209.705 178.012 201.967 175.111 206.803 155.766C211.639 136.421 171.015 149.963 171.015 149.963Z" fill="#F0C39B"/>
<path d="M290.469 464.798L293.371 509.29L315.618 499.618L306.912 462.863L290.469 464.798Z" fill="#F0C39B"/>
<path d="M141.515 565.39L145.384 618.588H165.695L159.892 565.39H141.515Z" fill="#F0C39B"/>
<path d="M142.889 606.964C140.556 610.134 141.024 614.665 138.958 618.014C137.167 620.917 133.791 622.44 131.551 625.012C130.837 625.867 130.199 626.784 129.647 627.751C127.569 631.232 125.88 635.693 127.927 639.193C129.573 642.008 133.034 643.108 136.207 643.858C140.219 644.805 144.387 645.564 148.444 644.84C152.502 644.115 156.468 641.631 157.914 637.771C158.199 636.801 158.537 635.847 158.927 634.914C161.126 630.584 168.025 630.537 170.276 626.234C171.851 623.223 170.403 619.582 168.955 616.508L164.535 607.116C163.068 603.999 157.121 605.792 154.02 605.045C149.977 604.071 145.797 602.998 142.889 606.964Z" fill="#171717"/>
<path d="M127.006 362.271C127.006 362.271 127.974 418.37 133.777 436.748C139.58 455.125 138.613 456.092 137.646 458.994C136.679 461.896 135.711 459.961 135.711 464.798C135.711 469.634 133.777 546.045 135.711 552.816C137.646 559.586 129.908 571.193 135.711 572.161C141.515 573.128 168.597 572.161 169.565 566.357C170.532 560.554 161.827 558.619 165.696 554.75C169.565 550.881 175.368 471.568 175.368 471.568L188.909 416.436L214.058 387.419L239.5 383.5L267.255 387.419L283.698 451.256C283.698 451.256 276.928 469.634 281.764 469.634C286.6 469.634 315.617 475.437 315.617 454.158C315.617 435.05 307.459 382.398 304.715 370.458C304.345 368.846 303.883 367.217 303.536 365.599C303.125 363.679 302.57 361.527 301.903 359.492C301.358 357.83 300.352 356.396 298.934 355.372C290.926 349.59 263.895 332.815 252.747 329.385C240.173 325.516 222.534 320.911 222.534 320.911L127.006 362.271Z" fill="#281818"/>
<path d="M315.617 491.88C315.617 491.88 301.109 487.044 294.338 501.552C287.567 516.061 290.469 519.93 290.469 519.93C290.469 519.93 312.716 527.668 316.585 523.799C318.268 522.116 323.613 521.531 329.115 521.407C337.495 521.219 339.724 509.364 331.81 506.603C331.574 506.521 331.335 506.449 331.093 506.389C323.355 504.454 315.617 491.88 315.617 491.88Z" fill="#171717"/>
<path d="M192.779 165.922C208.804 165.922 221.796 152.931 221.796 136.905C221.796 120.879 208.804 107.888 192.779 107.888C176.753 107.888 163.762 120.879 163.762 136.905C163.762 152.931 176.753 165.922 192.779 165.922Z" fill="#F0C39B"/>
<path d="M153.477 188.374C153.477 188.374 197.532 198.028 208.322 182.582C219.111 167.137 223.606 226.023 223.606 226.023L229 287.805L225 321.5C225 321.5 178.652 358.277 165.165 361.172C151.679 364.069 131 366 131 366C131 366 137.294 258.845 137.294 256.915C137.294 254.983 153.477 188.374 153.477 188.374Z" fill="#2874F0"/>
<path d="M169.469 170.028C169.469 170.028 158.924 163.987 156.023 169.791C153.121 175.594 126.038 190.103 123.137 190.103C120.235 190.103 128.94 270.383 125.071 280.056C121.202 289.728 102.825 360.336 113.464 366.14C124.104 371.943 116.366 360.336 127.005 374.845C137.645 389.353 189.876 389.353 192.777 383.55C195.679 377.746 169.564 334.221 174.4 293.597C179.236 252.973 186.974 196.873 180.203 189.136C173.433 181.398 169.469 170.028 169.469 170.028Z" fill="#171717"/>
<path d="M204.385 176.562L205.733 171.925C205.733 171.925 245.976 185.267 247.911 193.972C249.845 202.677 248.878 263.613 242.107 268.449C235.337 273.285 225.664 281.023 232.435 292.63C239.206 304.236 246.944 316.811 252.747 317.778C258.55 318.745 269.19 325.516 266.288 332.286C263.387 339.057 228.566 326.483 228.566 326.483C228.566 326.483 205.352 309.073 206.32 281.99C207.287 254.907 204.385 176.562 204.385 176.562Z" fill="#171717"/>
<path d="M238.238 290.695L215.024 334.221C215.024 334.221 181.171 369.041 200.515 372.91C219.86 376.779 230.5 340.991 230.5 340.991L255.648 305.204L238.238 290.695Z" fill="#F0C39B"/>
<path d="M182.951 94.6159C181.782 94.5299 180.61 94.7569 179.558 95.2739C178.606 95.9689 177.822 96.8679 177.263 97.9049C174.683 101.786 171.32 105.084 167.39 107.588C164.456 109.454 160.726 111.781 161.228 115.221C161.501 116.374 161.986 117.467 162.658 118.443C165.374 123.234 166.455 128.78 165.738 134.24L173.804 122.515C175.085 120.654 177.309 118.553 179.242 119.722C179.89 120.113 180.315 120.815 180.989 121.159C182.597 121.978 184.308 120.412 185.732 119.302C190.64 115.476 197.621 116.478 203.73 117.67C206.614 118.233 209.782 118.972 211.486 121.365C214.319 125.342 211.361 131.088 213.015 135.683C213.477 135.359 213.87 134.945 214.17 134.466C214.47 133.987 214.671 133.453 214.761 132.895C217.067 132.967 219.893 132.74 220.881 130.655C221.181 129.838 221.342 128.976 221.355 128.105C221.717 124.603 223.429 121.408 224.563 118.075C225.697 114.741 226.191 110.835 224.277 107.88C223.577 106.878 222.731 105.987 221.769 105.234C210.908 96.1079 196.628 94.6029 182.951 94.6159Z" fill="black"/>
<path d="M238.238 190.103L247.25 192.495C247.25 192.495 268.223 246.202 263.387 282.957C258.55 319.712 255.649 311.974 255.649 311.974C255.649 311.974 247.911 294.564 230.5 298.433L238.238 190.103Z" fill="#171717"/>
<path d="M110.562 310.04L151.187 372.91C151.187 372.91 176.334 404.829 184.072 390.32C191.81 375.812 156.99 351.631 156.99 351.631L130.874 303.269L110.562 310.04Z" fill="#F0C39B"/>
<path d="M130.875 192.037L123.138 190.103C123.138 190.103 107.662 194.939 103.793 215.251C99.9238 235.563 102.826 316.811 107.662 317.778C112.498 318.745 131.548 303.631 134.597 306.835C137.646 310.04 127.974 293.597 130.875 284.892C133.777 276.187 130.875 192.037 130.875 192.037Z" fill="#171717"/>
<path d="M76.6737 495.59L62.4824 501.039L41.732 509C40.9465 507.569 39.793 505.581 38.3664 503.278C33.4509 495.196 25.3135 482.623 18.077 471.572C9.92568 459.091 2.89844 448.599 2.89844 448.599L7.98691 447.168L49.4941 435.225L76.6737 495.59Z" fill="#E6ECF8"/>
<path opacity="0.1" d="M76.674 494.82L62.5689 500.196C54.688 501.811 46.6469 502.54 38.5993 502.369C33.7136 494.396 25.6256 481.994 18.4331 471.093L8.4043 447.007L49.6601 435.225L76.674 494.82Z" fill="black"/>
<path d="M86.5842 491.908C86.5842 491.908 64.7614 504.903 32.1764 501.959L6.20215 438.21L18.6542 436.056L61.6876 428.618L86.0921 490.665L86.5842 491.908Z" fill="#2874F0"/>
<path opacity="0.1" d="M86.5841 491.225C80.8208 491.543 75.0415 491.378 69.3052 490.733C62.7466 489.958 56.1509 488.371 50.5244 485.444C46.0883 483.233 41.9599 480.449 38.2441 477.164C29.0771 468.897 23.4069 457.067 18.3145 436.123L61.9011 428.618L86.5841 491.225Z" fill="black"/>
<path d="M102 487.341C102 487.341 85.9856 490.485 69.7097 488.551C63.267 487.79 56.7892 486.225 51.2619 483.358C46.9074 481.181 42.8531 478.449 39.1997 475.227C28.0602 465.176 22.1713 449.776 16.1123 418.668C16.1123 418.668 42.7123 425.071 69.0072 411C68.9715 411.029 77.8405 466.513 102 487.341Z" fill="#F9FAFB"/>
<path opacity="0.1" d="M68.9661 489.18C62.9205 488.398 56.8421 486.79 51.6555 483.846C47.5695 481.611 43.7651 478.805 40.3369 475.496C49.2387 474.7 50.5168 469.359 50.5168 469.359C57.0882 480.837 68.9661 489.18 68.9661 489.18Z" fill="black"/>
<path opacity="0.3" d="M28.2246 430.466C28.2246 430.466 51.5505 429.169 58.0612 424.214L59.0561 427.336C59.0561 427.336 43.6403 434.041 28.2246 434.124V430.466Z" fill="#6C63FF"/>
<path opacity="0.3" d="M28.2246 444.486C28.2246 444.486 49.8616 443.283 66.2073 435.225L66.7639 436.518C66.7639 436.518 53.7834 444.24 28.2246 446.236V444.486Z" fill="#6C63FF"/>
<path opacity="0.3" d="M30.4268 450.347C30.4268 450.347 52.0714 449.378 68.4161 442.933L68.9661 443.962C68.9661 443.962 55.9924 450.144 30.4268 451.742V450.347Z" fill="#6C63FF"/>
<path opacity="0.3" d="M33.7295 456.774C33.7295 456.774 54.1301 455.691 69.541 448.438L70.0666 449.602C70.0666 449.602 57.8271 456.552 33.7295 458.348V456.774Z" fill="#6C63FF"/>
<path opacity="0.3" d="M34.8311 461.01C34.8311 461.01 55.2386 459.798 70.6502 451.742L71.1681 453.028C71.1681 453.028 58.9363 460.755 34.8311 462.753V461.01Z" fill="#6C63FF"/>
<path opacity="0.3" d="M35.9326 467.785C35.9326 467.785 57.5699 466.702 73.9145 459.449L74.4719 460.614C74.4719 460.614 61.4909 467.564 35.9326 469.36V467.785Z" fill="#6C63FF"/>
<defs>
<radialGradient id="paint0_radial_606_1126" cx="0" cy="0" r="1" gradientUnits="userSpaceOnUse" gradientTransform="translate(417 326) rotate(90.1796) scale(326.002)">
<stop stop-color="#132849"/>
<stop offset="1" stop-color="#1F1F1F"/>
</radialGradient>
</defs>
</svg>
